<?xml version="1.0" encoding="utf-8"?>
<!-- Generator: Adobe Illustrator 15.1.0, SVG Export Plug-In . SVG Version: 6.00 Build 0)  -->
<!DOCTYPE svg PUBLIC "-//W3C//DTD SVG 1.1//EN" "http://www.w3.org/Graphics/SVG/1.1/DTD/svg11.dtd">
<svg version="1.1" xmlns="http://www.w3.org/2000/svg" xmlns:xlink="http://www.w3.org/1999/xlink" x="0px" y="0px" width="531.5px"
	 height="123px" viewBox="0 0 531.5 123" enable-background="new 0 0 531.5 123" xml:space="preserve">
<g id="Layer_2">
	<rect width="531.5" height="123"/>
</g>
<g id="Layer_1">
	<path fill="#FFFFFF" d="M39.667,50.702c0.832,0.127,2.197,0.497,3.254,0.813c3.254,0.977,6.715,2.587,9.355,4.339
		c1.25,0.829,2.541,1.603,3.797,2.712c1.186,1.047,2.25,2.142,3.254,3.254c1.016,1.124,1.93,2.333,2.848,3.525
		c3.744,4.861,6.223,11.898,6.373,19.525c0.154,7.81-2.039,14.892-5.695,20.203c-0.266,0.387-0.521,0.708-0.814,1.085
		c-0.264,0.343-0.422,0.745-0.678,1.085c-0.516,0.688-0.743,0.764-1.319,1.424c-0.094,0.106-0.485,0.781-0.579,0.881
		c-0.652,0.703-1.744,1.542-2.576,2.305c-0.158,0.146-0.246,0.4-0.406,0.542c-1.275,1.132-3.045,2.345-4.609,3.39
		c-5.885,3.93-14.586,6.257-24.678,4.882c-2.062-0.281-4.08-0.914-6.102-1.627c-5.557-1.959-10.209-5.115-14.104-9.356
		c-0.334-0.364-0.645-0.741-0.949-1.084c-0.674-0.765-2.184-2.372-2.168-3.526c0.014-1.047,1.42-2.369,2.033-2.983
		c0.766-0.766,1.449-1.273,2.305-2.169c0.7-0.733,1.717-1.647,2.441-2.576c0.203-0.26,0.453-0.618,0.812-0.949
		c0.506-0.464,1.361-1.461,2.17-1.492c1.34-0.05,2.047,1.539,2.848,2.441c0.783,0.882,1.846,1.742,2.713,2.576
		c1.477,1.424,2.857,2.24,4.881,3.254c1.07,0.537,2.131,1.193,3.254,1.492c1.418,0.376,2.943,0.33,4.34,0.406
		c6.617,0.362,12.078-1.698,15.32-5.288c0.914-1.011,2.064-2.247,2.713-3.39c1.85-3.256,3.379-9.182,2.576-14.102
		c-0.518-3.171-1.949-6.201-3.66-8.136c-0.127-0.142-0.275-0.257-0.408-0.407c-0.439-0.502-0.891-1.236-1.49-1.763
		c-0.918-0.803-2.268-1.714-3.391-2.441c-1.99-1.289-4.967-2.488-8-2.983c-2.66-0.434-5.447-0.678-8.678-0.678
		c-4.49,0-9.062,0-13.83,0c-1.322,0-3.621,0.133-4.203-0.407c-0.648-0.599-0.479-1.989-0.271-3.661
		c1.049-8.527,2.012-19.074,2.848-27.525c0.26-2.638,0.584-5.157,0.949-7.729c0.697-4.916,1.123-10.374,1.627-15.458
		c0.107-1.087,0.377-2.456,0.541-3.797c0.199-1.626,0.193-2.952,0.814-3.525c1.238-1.143,7.002-0.532,8.271-0.542
		c7.98-0.062,18.662-0.2,26.982,0c2.488,0.06,7.383-0.453,8.406,0.542c0.66,0.64,0.506,2.131,0.543,3.661
		c0.064,2.688,0.123,4.452,0,7.729c-0.057,1.525,0.098,2.888-0.543,3.525c-0.885,0.881-4.553,0.542-6.914,0.542
		c-6.318,0-12.137,0-18.441,0c-1.416,0-2.719-0.169-3.391,0.271c-1.043,0.684-1.107,5.146-1.355,7.187
		c-0.828,6.829-1.305,12.131-1.898,19.119c-0.086,1.027-0.582,3.021-0.135,3.796c0.676,1.17,3.85,0.49,5.695,0.542 M142.852,21.956
		c0.494,1.583,1.24,5.581,2.441,6.237c0.828,0.453,2.166,0.212,3.525,0c2.107-0.33,3.4-0.792,4.881-1.221
		c1.293-0.374,4.182-1.611,4.746-1.22c0.691,0.479,0.406,3.861,0.406,5.424c0,17.959-0.135,35.103-0.135,52.61
		c0,8.433,0,14.985,0,23.458c0,2.238-0.578,10.062,0.543,11.254c0.975,1.039,5.24,0.678,7.592,0.678c2.168,0,6.52,0.495,7.594-0.678
		c0.699-0.764,0.543-4.293,0.543-6.644c0-17.244,0-34.107,0-50.576c0-17.057,0-33.642,0-50.576c0-2.397,0.201-5.922-0.543-6.78
		c-1-1.152-8.305-0.681-9.627-0.678c-1.34,0.003-3.771-0.23-5.018,0.135c-1.521,0.447-2.441,2.203-3.525,3.119
		c-0.168,0.142-0.24,0.263-0.406,0.407c-3.139,2.733-7.129,5.242-11.662,6.644c-0.584,0.181-1.23,0.28-1.762,0.542
		c-1.369,0.679-1.441,1.252-1.084,2.848C141.793,18.87,142.374,20.422,142.852,21.956z M72.616,119.176c3.352,0.093,5.652,0,8.678,0
		c1.357,0,3.121,0.154,4.066-0.271c1.334-0.599,2.404-3.63,3.525-5.831c3.279-6.433,6.328-12.966,9.357-18.847
		c0.523-1.018,0.984-2.071,1.49-3.119c0.51-1.053,1.104-2.076,1.627-3.119c1.078-2.142,1.959-4.286,2.984-6.373
		c1.039-2.114,2.141-4.103,3.119-6.237c0.979-2.137,2.195-4.18,3.254-6.237c1.094-2.127,1.92-4.376,2.982-6.373
		c1.133-2.13,2.131-4.217,3.119-6.237c3.094-6.325,6.314-12.613,9.355-18.848c0.502-1.027,0.967-2.085,1.492-3.119
		c0.561-1.105,1.217-2.582,1.762-3.525c0.559-0.965,0.941-1.835,1.357-2.712c0.562-1.194,1.236-2.616,1.762-3.525
		c0.273-0.471,0.334-0.794,0.543-1.22c0.754-1.548,2.002-3.389,2.305-4.881c0.406-2.003,0.135-4.829,0.135-7.729
		c0-2.527,0.441-6.203-0.541-7.187c-0.779-0.778-5.098-0.577-6.781-0.542c-8.043,0.167-16.141,0-23.592,0
		c-10.396,0-22.26-0.275-31.459,0c-1.336,0.04-2.633,0-3.254,0.949c-0.676,1.032-0.271,5.372-0.271,7.186
		c0,2.135-0.48,6.103,0.543,7.187c0.762,0.807,3.029,0.678,5.152,0.678c12.533,0,23.344,0,35.662,0c1.826,0,5.09-0.175,5.559,0.407
		c0.268,0.333-0.477,2.045-0.949,2.983c-1.629,3.24-3.26,6.369-4.609,9.22c-2.146,4.527-4.748,9.592-6.781,13.695
		c-0.533,1.079-1.029,2.178-1.49,3.119c-2.029,4.146-4.166,8.374-6.102,12.339c-0.756,1.544-1.648,3.648-2.441,5.017
		c-0.555,0.959-0.943,1.846-1.355,2.712c-1.447,3.038-3.002,6.29-4.475,9.221c-2.098,4.17-4.178,8.279-6.102,12.339
		c-0.41,0.863-1.051,1.838-1.357,2.576c-0.092,0.224-0.197,0.267-0.27,0.407c-1.123,2.155-2.021,4.612-3.119,6.508
		c-0.082,0.141-0.057,0.242-0.137,0.407c-0.416,0.86-0.805,1.542-1.219,2.305c-1.691,3.113-3.057,6.709-4.746,9.627
		c-0.369,0.636-0.705,1.386-0.949,1.898c-0.137,0.284-0.135,0.662-0.271,0.949c-0.264,0.55-0.654,1.005-0.814,1.492
		C68.536,118.985,69.901,119.101,72.616,119.176z M264.865,66.778c-5.967,0-11.862-0.313-14.766,0.192
		c-0.122,0.021-0.26-0.007-0.384,0c-1.434,0.075-2.867,1.082-2.492,3.069c0.356,1.894,2.732,1.877,4.793,1.918
		c2.141,0.042,5.229-0.611,6.522,0.383c1.481,1.142,0.765,8.411,0.765,11.508c0,9.238,0,15.605,0,24.933
		c0,2.917-0.583,7.191,0.575,8.631c0.475,0.588,1.356,0.98,2.304,0.959c3.451-0.078,2.682-4.892,2.682-9.59
		c0-9.039,0-15.987,0-24.741c0-2.678-0.641-10.638,0.769-11.7c1.16-0.874,4.318-0.333,6.903-0.383
		c2.506-0.05,4.874-0.101,4.796-2.686C277.223,65.654,269.178,66.778,264.865,66.778z M268.512,4.637c-3.591,0-7.315-0.099-10.357,0
		c-1.627,0.052-3.578-0.162-4.412,0.958c-0.699,0.939-0.575,3.435-0.575,5.754c0,11.332,0,20.917,0,32.222
		c0,3.556-0.646,10.658,0.765,12.083c0.898,0.904,4.031,0.767,5.945,0.767c2.448,0,4.55,0,6.907,0
		c3.895,0,11.291,1.175,11.506-2.301c0.216-3.499-3.846-2.876-8.247-2.876c-2.861,0-9.951,0.573-10.931-0.576
		c-0.978-1.144-0.384-7.104-0.384-9.589c0-1.393,0-3.337,0-4.987c0-1.545-0.246-4.084,0.384-4.795
		c1.544-1.744,8.91,0.615,11.316-1.342c0.188-0.153,0.84-1.013,0.959-1.343c1.464-4.067-3.962-3.328-6.33-3.26
		c-0.547,0.016-1.127-0.168-1.727-0.192c-1.025-0.04-3.713,0.342-4.412-0.767c-0.644-1.025-0.191-5.902-0.191-6.905
		c0-1.994-0.585-5.775,0.384-6.904c0.616-0.718,3.083-0.576,4.793-0.576c4.006,0,13.789,1.103,14.579-1.726
		c0.152-0.549-0.13-2.163-0.193-2.301C277.402,4.048,272.159,4.637,268.512,4.637z M240.894,93.821
		c-0.539-0.363-1.163-0.61-1.727-0.959c-0.522-0.321-0.984-0.827-1.536-1.151c-1.42-0.836-2.793-1.119-4.409-1.726
		c-0.834-0.312-1.686-0.654-2.495-0.959c-4.556-1.714-11.587-3.345-13.043-7.672c-0.616-1.836-0.232-3.975,0.193-4.986
		c1.238-2.946,5.474-4.616,9.59-4.795c1.768-0.077,4.672,0.348,6.904,0.768c1.251,0.235,2.199,0.594,3.26,0.192
		c0.884-0.336,1.505-1.087,1.536-2.302c0.049-2.116-1.257-2.383-2.686-2.876c-1.262-0.435-2.961-0.998-4.603-1.15
		c-2.113-0.197-4.854-0.046-5.754,0c-2.081,0.104-3.017,0.422-4.219,0.767c-1.199,0.343-2.393,0.491-3.645,1.151
		c-1.658,0.872-3.683,2.778-4.796,4.411c-2.326,3.411-2.719,8.175-0.959,11.699c0.702,1.405,2.481,3.587,4.028,4.795
		c1.11,0.867,2.616,1.482,4.028,2.109c2.973,1.322,5.898,2.409,8.821,3.453c2.859,1.02,5.083,1.958,7.097,3.452
		c1.517,1.126,2.597,2.293,3.069,4.219c0.79,3.243-0.342,6.395-1.536,7.864c-2.091,2.576-6.896,3.979-11.316,3.644
		c-5.136-0.39-8.142-2.653-9.974-6.137c-0.375-0.718-0.597-1.759-1.149-2.301c-1.312-1.284-3.909-1.312-4.796,0
		c-1.138,1.685,0.381,4.696,0.958,5.753c0.658,1.206,1.821,2.385,2.876,3.453c1.174,1.183,2.834,2.557,4.028,3.069
		c5.738,2.459,15.599,2.167,20.331-0.575c1.276-0.74,2.011-1.546,3.069-2.686c1.749-1.882,2.166-2.683,2.876-5.178
		c0.279-0.981,0.677-1.941,0.768-2.877c0.453-4.671-0.997-8.108-2.685-10.356C242.22,94.889,241.977,94.551,240.894,93.821z
		 M438.634,55.846c0.693,0.457,2.79,0.533,3.45,0.192c1.089-0.562,1.152-2.658,1.152-5.371c0-12.062,0-21.068,0-32.604
		c0-3.094,0.727-10.78-0.575-12.467c-1.182-1.528-4.953-1.071-5.947-0.958c-1.915,0.217-4.003,0.333-3.645,3.069
		c0.335,2.523,3.31,1.58,4.222,3.068c0.514,0.841,0.16,2.78,0.19,4.794c0.069,4.438,0.207,9.936,0.193,14.769
		c-0.011,3.166-0.193,8.128-0.193,13.234C437.481,46.796,436.75,54.605,438.634,55.846z M313.198,67.162
		c-1.119-0.459-2.663-0.188-3.45,0.575c-0.939,0.91-0.672,2.346-0.769,4.411c-0.37,7.844-0.066,17.373-0.19,25.125
		c-0.061,3.613,0.506,8.417-0.577,11.125c-0.986,2.471-3.258,4.054-5.945,4.795c-7.921,2.182-13.7-2.033-14.001-9.015
		c-0.1-2.328,0.193-5.858,0.193-9.014c0-6.887,0-12.472,0-19.18c0-2.047,0.533-7.479-1.152-8.631
		c-0.876-0.597-2.177-0.281-2.492-0.192c-0.113,0.032-0.279-0.048-0.384,0c-2.103,0.959-1.536,5.903-1.536,9.59
		c0,6.437,0,15.842,0,21.864c0,4.207-0.397,7.247,0.384,10.549c0.304,1.281,1.183,3.203,1.727,4.027
		c0.948,1.434,3.962,3.732,5.562,4.411c4.321,1.832,11.783,1.736,15.728,0.192c2.146-0.84,5.081-3.159,6.139-4.795
		c1.939-3,2.302-7.628,2.302-12.274c0-6.491,0-17.147,0-23.399C314.734,73.409,315.248,68.001,313.198,67.162z M285.196,48.558
		c0.955,2.894,3.713,5.937,6.138,7.097c4.134,1.976,10.844,1.695,15.729,0.575c2.478-0.568,4.387-1.593,4.409-3.26
		c0.005-0.418-0.514-1.795-0.959-2.11c-1.234-0.875-3.506-0.07-5.945,0.384c-3.063,0.569-6.572,0.75-8.821,0
		c-2.038-0.68-3.787-1.975-4.796-4.028c-0.947-1.932-0.975-5.534-0.958-8.248c0.033-5.45-0.031-11.008,0-16.877
		c0.017-2.984,0.008-5.952,0.768-7.864c1.577-3.972,7.199-5.971,12.658-4.795c1.948,0.42,5.382,1.288,5.945-0.767
		c0.536-1.958-0.97-2.966-2.879-3.644c-2.641-0.938-6.776-1.274-9.589-0.958c-2.08,0.233-4.929,1.094-6.329,1.918
		c-1.799,1.058-4.376,4.187-4.986,5.562c-0.517,1.163-1.012,3.798-1.149,5.754c-0.334,4.648,0,9.619,0,15.918
		C284.431,38.788,284.074,45.151,285.196,48.558z M447.07,94.013c-2.361-1.998-6.166-3.444-9.205-4.603
		c-3.467-1.323-6.97-2.146-10.166-3.836c-1.688-0.894-4.039-2.811-4.409-4.987c-0.48-2.821,0.489-4.484,1.343-5.562
		c2.729-3.456,9.042-3.885,14.382-2.877c2.429,0.459,4.098,1.132,5.181,0.192c0.549-0.478,0.875-1.866,0.768-2.686
		c-0.445-3.336-8.811-3.611-11.509-3.452c-2.569,0.152-3.808,0.33-5.562,0.767c-2.76,0.686-3.773,1.03-5.562,2.493
		c-1.464,1.199-2.431,2.362-3.263,3.836c-0.34,0.604-0.737,1.111-0.959,1.726c-1.588,4.424-0.378,8.564,1.728,11.316
		c0.395,0.514,0.98,1.201,1.533,1.726c1.84,1.737,3.846,2.405,6.329,3.453c0.779,0.327,1.539,0.665,2.304,0.958
		c2.562,0.983,4.841,1.953,7.288,2.877c1.607,0.607,3.269,1.16,4.603,2.109c1.973,1.405,3.859,3.817,4.028,6.521
		c0.182,2.984-1.089,4.919-2.302,6.329c-1.823,2.118-4.503,3.161-8.056,3.452c-6.531,0.536-10.424-1.925-12.658-5.562
		c-0.981-1.598-1.479-3.381-3.261-3.644c-4.439-0.655-3.174,4.081-2.301,5.945c1.923,4.119,6.396,7.315,11.122,8.247
		c4.741,0.936,10.625,0.581,14.576-0.767c0.942-0.321,1.621-0.932,2.494-1.535c1.812-1.252,3.901-3.363,4.794-5.178
		c0.334-0.678,0.527-1.762,0.768-2.686c0.862-3.284,0.622-7.822-0.574-10.165C449.731,96.873,448.223,94.986,447.07,94.013z
		 M488.5,15.378c0.002-1.844,0.278-5.16,0.19-6.521c-0.158-2.448-0.719-4.283-3.069-4.219c-3.183,0.086-2.876,4.114-2.876,7.672
		c0,7.66,0,13.84,0,21.097c0,2.063,0.392,9.482-0.575,9.781c-0.851,0.262-2.602-3.039-3.453-4.411
		c-1.154-1.866-2.097-3.55-3.069-4.987c-4.536-6.708-8.379-12.917-12.465-19.371c-0.854-1.346-2.116-2.991-3.26-4.794
		c-0.24-0.376-0.302-0.911-0.577-1.343c-0.669-1.054-1.938-2.823-2.876-3.261c-1.012-0.472-2.343-0.221-2.492-0.191
		c-3.741,0.721-2.142,6.052-2.304,11.124c-0.111,3.541,0,8.104,0,10.356c0,1.911,0.044,4.832,0,6.138
		c-0.145,4.527-0.116,12.632-0.191,17.836c-0.038,2.728,0.37,5.526,1.918,5.946c3.812,1.032,3.95-2.849,4.027-5.178
		c0.273-8.355,0-15.764,0-23.399c0-1.994-0.586-8.852,0.384-9.59c0.569-0.434,1.178,0.601,1.152,0.576
		c0.379,0.38,0.476,0.445,0.959,1.151c2.367,3.473,4.754,7.24,6.71,10.548c2.826,4.776,5.559,8.702,8.44,13.234
		c1.69,2.66,3.414,5.242,4.986,7.863c0.983,1.64,2.092,4.198,4.028,4.795c1.113,0.344,2.746,0.387,3.644-0.384
		c1.9-1.631,0.754-10.438,0.769-13.042C488.538,35.427,488.485,22.907,488.5,15.378z M527.623,45.105
		c0-4.867,0.555-10.516-1.533-11.507c-1.139-0.541-3.388-0.245-5.181-0.192c-1.558,0.046-3.417-0.066-4.027,1.342
		c-0.737,1.706,0.597,2.974,1.343,3.452c1.298,0.832,2.79,0.479,3.453,1.343c0.893,1.162,0.527,3.081,0.19,4.795
		c-0.423,2.16-1.406,4.033-2.686,4.986c-1.094,0.815-2.597,1.566-3.834,1.918c-5.183,1.469-10.688-1.31-12.274-4.604
		c-1.826-3.788-0.959-9.666-0.959-16.302c0-4.581-0.326-9.501,0-12.851c0.32-3.293,2.012-5.604,3.835-6.712
		c1.856-1.127,4.669-1.923,8.439-1.535c1.042,0.108,3.45,0.941,3.835,0.959c1.779,0.085,3.027-0.436,3.263-1.726
		c0.373-2.051-1.605-2.949-3.454-3.453c-0.322-0.088-0.635-0.299-0.958-0.383c-1.859-0.488-5.191-0.658-6.714-0.575
		c-0.124,0.006-0.257,0.005-0.384,0c-3.017-0.135-6.044,1.089-7.672,2.301c-0.456,0.34-0.765,0.801-1.149,1.15
		c-0.887,0.809-1.828,1.558-2.301,2.302c-1.771,2.781-2.495,6.999-2.495,11.316c0,3.162-0.063,7.27,0,11.507
		c0.062,3.962-0.088,8.169,0.19,11.508c0.31,3.679,2.175,7.255,4.222,8.823c1.072,0.821,1.953,1.7,3.069,2.301
		c2.352,1.268,5.959,1.952,9.396,1.918c2.352-0.023,3.832-0.593,5.564-1.151c0.867-0.28,2.359-0.967,3.066-0.958
		c1.544,0.017,2.302,1.741,4.222,0.958C528.391,55.099,527.623,48.707,527.623,45.105z M317.61,49.708
		c-2.451-4.702-1.533-14.629-1.533-22.056c0-7.171-0.296-12.44,1.343-15.919c0.884-1.881,2.133-3.803,3.834-5.178
		c1.849-1.493,4.636-2.675,8.056-3.069c3.838-0.442,8.628,0.046,11.7,1.917c1.986,1.211,4.595,4.125,5.562,6.521
		c1.688,4.183,1.151,13.21,1.151,18.987c0,5.454,0.528,12.349-0.768,16.687c-1.012,3.384-3.713,6.252-6.713,7.863
		c-0.782,0.419-2.495,0.863-3.835,1.151C328.343,58.345,320.541,55.328,317.61,49.708z M332.57,51.626
		c2.84-0.131,6.832-1.709,8.056-3.453c0.52-0.742,1.364-3.279,1.533-4.794c0.414-3.674,0-8.458,0-13.042
		c0-4.499,0.478-8.78,0-13.234c-0.605-5.678-5.578-9.172-11.7-8.247c-3.157,0.478-6.078,1.653-7.479,4.028
		c-1.02,1.729-1.317,5.137-1.343,7.48c-0.055,5.317,0,11.748,0,18.028c0,3.157,0.103,6.579,0.959,8.439
		c0.166,0.36,0.749,0.867,1.152,1.342c0.405,0.481,0.71,0.997,1.149,1.343C326.815,51.018,329.324,51.776,332.57,51.626z
		 M369.587,67.737c-1.146-1.338-4.299-0.93-5.945-0.767c-1.61,0.16-3.639,0.163-3.453,2.685c0.221,3.004,3.574,1.628,4.411,3.453
		c0.382,0.828,0,3.306,0,5.37c0,5.286,0.423,12.375,0.191,17.454c-0.137,2.978,0,7.179,0,11.316c0,3.258-0.793,9.593,1.151,10.74
		c0.97,0.571,2.854,0.311,3.454-0.192c0.941-0.793,0.928-4.189,0.958-6.713c0.139-11.518,0.139-21.871-0.193-31.837
		C370.057,76.085,371.181,69.599,369.587,67.737z M425.591,49.708c-2.008,3.876-6.066,6.279-11.699,6.712
		c-2.625,0.203-5.741,0-9.398,0c-3.238,0.001-7.134,0.428-8.247-0.958c-0.707-0.881-0.732-4.136-0.768-6.137
		c-0.045-2.473,0.198-4.316,0.193-6.329c-0.033-10.461,0.014-21.511-0.193-32.414c-0.05-2.689,0.11-4.771,1.151-5.562
		c1.578-1.2,6.562-0.552,8.821-0.575c-0.017,0,0.056-0.201,0.193-0.192c5.391,0.361,9.664,0.308,13.043,1.918
		c1.961,0.936,3.939,2.862,5.367,4.604c1.296,1.577,2.951,5.432,3.263,8.63c0.255,2.603,0.022,5.104,0,7.672
		C427.252,34.146,428.056,44.948,425.591,49.708z M421.754,35.899c0-5.266,0.011-9.878,0-13.426
		c-0.009-3.471-1.152-7.637-2.492-9.206c-2.58-3.023-8.415-4.018-16.111-3.452c-0.183,0.013-0.13,0.172-0.191,0.191
		c-0.112,0.036-0.275-0.047-0.384,0c-1.185,0.526-1.271,1.908-1.343,2.877c-0.099,1.346,0.191,2.853,0.191,3.835
		c0.017,5.814,0,10.944,0,17.262c0,6.055-0.083,8.319,0,13.234c0.03,1.749-0.105,3.103,0.577,3.644
		c0.864,0.688,5.467,0.453,7.479,0.384c2.619-0.091,5.983-0.538,7.097-0.959c1.321-0.5,3.075-1.858,3.645-2.685
		C421.908,45.148,421.754,40.861,421.754,35.899z M244.345,51.051c0.514,1.699,1.254,3.588,0.384,4.603
		c-0.461,0.538-1.594,0.825-2.876,0.575c-1.572-0.305-2.125-2.04-2.685-3.644c-0.992-2.831-2.285-6.189-3.26-9.207
		c-0.522-1.614-0.854-3.625-1.92-4.219c-0.995-0.556-4.677-0.192-7.288-0.192c-1.342,0-6.518-0.464-7.479,0.384
		c-1.105,0.974-0.577,6.873-0.577,9.014c0,3.341,0.925,8.265-3.067,7.864c-3.453-0.347-2.495-6.193-2.495-10.74
		c0-11.436,0-22.56,0-33.756c0-2.552-0.102-5.254,0.575-6.137c0.763-0.989,2.288-0.842,3.263-0.958c2.088-0.249,4.921-0.017,7.863,0
		c4.219,0.023,8.357-0.283,11.506,0.575c2.558,0.696,3.732,1.448,5.371,3.261c2.069,2.288,3.71,5.205,4.028,9.589
		c0.318,4.376,0.13,10.265-1.533,13.809c-0.381,0.813-1.238,2.011-1.92,2.877c-0.693,0.883-1.727,1.47-1.917,2.686
		c-0.224,1.441,0.71,3.482,1.152,4.794C242.543,45.429,243.198,47.258,244.345,51.051z M236.866,11.542
		c-2.269-1.594-5.987-1.343-10.167-1.343c-2.423,0-5.431-0.19-6.521,0.192c-0.11,0.038-0.279-0.05-0.384,0
		c-1.453,0.69-1.152,2.873-1.152,4.987c0,1.951,0,3.37,0,5.945c0,2.987-0.729,10.163,0.577,11.508
		c0.939,0.969,5.78,0.56,7.479,0.576c2.887,0.027,6.222,0.21,8.44-0.576c1.655-0.586,3.014-2.203,3.644-3.453
		C241.286,24.419,240.43,14.047,236.866,11.542z M386.273,48.558c0.497,1.509,2.077,5.312,1.342,6.713
		c-0.787,1.501-3.633,1.417-4.986-0.383c-0.837-1.114-1.34-3.564-1.917-5.179c-0.716-1.995-1.332-3.55-1.92-5.37
		c-0.509-1.576-1.062-4.349-2.108-4.987c-1.586-0.966-4.846-0.421-7.287-0.384c-1.235,0.019-6.78-0.508-7.672,0.384
		c-0.716,0.712-0.581,5.903-0.578,7.288c0.017,4.44,1.398,10.229-3.26,9.59c-0.456-0.062-1.216-0.284-1.533-0.575
		c-1.527-1.395-0.768-8.583-0.768-12.083c0-10.985,0-21.078,0-32.222c0-2.011-0.155-4.8,0.574-5.754
		c0.917-1.192,2.506-0.86,4.028-0.958c3.909-0.251,10.951-0.315,15.344,0c4.384,0.313,7.072,1.873,9.398,4.603
		c2.107,2.474,3.224,6.352,3.453,10.933c0.213,4.291-0.362,8.974-2.11,12.275c-0.359,0.676-0.735,1.466-1.343,2.109
		c-0.605,0.641-1.965,1.781-2.111,3.069c-0.141,1.252,0.683,3.259,1.152,4.603C384.762,44.491,385.5,46.216,386.273,48.558z
		 M381.286,13.652c-2.198-3.659-5.906-3.453-11.89-3.453c-2.451,0-6.025-0.207-6.907,0.192c-0.199,0.09-0.246,0.097-0.381,0.191
		c-1.122,0.785-0.729,4.069-0.769,6.329c-0.024,1.463-0.215,3.95-0.193,6.329c0.022,2.214-0.077,8.841,0.578,9.59
		c0.854,0.981,4.878,0.597,7.094,0.576c4.793-0.046,8.841,0.112,11.125-1.918C383.334,28.475,383.771,17.783,381.286,13.652z
		 M383.204,68.888c2.257-1.802,5.63-3.025,9.973-3.261c4.479-0.243,9.41,1.12,11.891,3.644c1.075,1.093,2.553,2.689,3.263,4.219
		c2.432,5.244,1.533,14.627,1.533,22.44c0,6.167,0.16,12.297-1.343,15.535c-1.216,2.618-4.02,5.132-6.903,6.329
		c-3.473,1.44-8.443,1.653-12.659,0.768c-4.45-0.937-8.083-3.899-9.782-7.864c-1.702-3.974-1.149-13.446-1.149-19.563
		c0-6.351-0.475-13.853,1.533-18.028c0.279-0.58,0.942-1.36,1.536-2.11 M404.302,94.78c0-5.361,0.515-10.003,0-14.959
		c-0.494-4.775-3.183-7.755-7.287-8.631c-1.47-0.313-4.232-0.181-5.371,0c-2.412,0.384-4.559,1.397-5.755,2.686
		c-2.92,3.146-2.11,10.16-2.11,17.836c0,2.958,0,5.829,0,8.248c0,3.143-0.293,6.096,0.384,8.055c0.329,0.949,1.13,1.841,1.92,2.685
		c1.896,2.027,4.797,3.195,8.631,3.069c2.29-0.075,4.981-0.879,6.329-1.918C404.913,108.863,404.302,101.937,404.302,94.78z
		 M354.437,92.862c0,6.577,0.668,14.698-1.727,19.18c-0.939,1.756-4.484,4.791-6.714,5.562c-3.434,1.185-7.188,0.959-11.699,0.959
		c-3.199-0.001-9.777,0.612-11.126-1.151c-1.091-1.43-0.574-9.509-0.574-12.083c0-7.407,0-17.723,0-25.317
		c0-1.906-0.716-10.278,0.574-12.083c0.495-0.689,1.318-0.767,2.302-0.958c3.133-0.61,9.086-0.39,12.658-0.192
		c5.149,0.285,8.634,1.551,11.316,4.027c3.183,2.938,5.039,7.789,5.18,13.81C354.682,86.959,354.437,89.861,354.437,92.862z
		 M347.339,76.751c-2.207-3.31-5.525-4.575-10.741-4.794c-1.669-0.071-5.691-0.192-6.713,0.191c-0.113,0.043-0.269-0.039-0.384,0
		c-0.951,0.322-1.098,2.005-1.149,2.877c-0.025,0.381,0.03,2.739,0,3.644c-0.13,3.731,0,4.837,0,7.864
		c0,4.117,0.218,12.321,0.19,14.96c-0.009,0.959-0.257,2.765-0.19,5.754c0.041,1.905-0.03,4.939,0.574,5.562
		c1.063,1.094,5.324,0.655,7.862,0.575c5.572-0.175,9.664-1.281,11.316-4.987c0.807-1.809,0.768-4.408,0.768-6.904
		c0-2.699,0-5.453,0-7.864C348.872,87.871,349.659,80.234,347.339,76.751z"/>
</g>
</svg>
