<?xml version="1.0" encoding="utf-8"?>
<!-- Generator: Adobe Illustrator 15.1.0, SVG Export Plug-In . SVG Version: 6.00 Build 0)  -->
<!DOCTYPE svg PUBLIC "-//W3C//DTD SVG 1.1//EN" "http://www.w3.org/Graphics/SVG/1.1/DTD/svg11.dtd">
<svg version="1.1" xmlns="http://www.w3.org/2000/svg" xmlns:xlink="http://www.w3.org/1999/xlink" x="0px" y="0px" width="531.5px"
	 height="123px" viewBox="0 0 531.5 123" enable-background="new 0 0 531.5 123" xml:space="preserve">
<g id="Layer_2">
	<rect width="531.5" height="123"/>
</g>
<g id="Layer_1">
	<path fill="#FFFFFF" d="M32.344,50.159c-1.846-0.053-5.02,0.628-5.695-0.542c-0.447-0.775,0.049-2.769,0.135-3.796
		c0.594-6.987,1.07-12.29,1.898-19.119c0.248-2.04,0.312-6.502,1.355-7.187c0.672-0.44,1.975-0.271,3.391-0.271
		c6.305,0,12.123,0,18.441,0c2.361,0,6.029,0.338,6.914-0.542c0.641-0.637,0.486-2,0.543-3.525c0.123-3.277,0.064-5.042,0-7.729
		c-0.037-1.53,0.117-3.021-0.543-3.661c-1.023-0.995-5.918-0.482-8.406-0.542c-8.32-0.2-19.002-0.062-26.982,0
		c-1.27,0.01-7.033-0.601-8.271,0.542c-0.621,0.573-0.615,1.899-0.814,3.525c-0.164,1.341-0.434,2.709-0.541,3.797
		c-0.504,5.083-0.93,10.542-1.627,15.458c-0.365,2.572-0.689,5.091-0.949,7.729c-0.836,8.452-1.799,18.998-2.848,27.525
		c-0.207,1.672-0.377,3.062,0.271,3.661c0.582,0.54,2.881,0.407,4.203,0.407c4.768,0,9.34,0,13.83,0c3.23,0,6.018,0.244,8.678,0.678
		c3.033,0.495,6.01,1.694,8,2.983c1.123,0.727,2.473,1.638,3.391,2.441c0.6,0.527,1.051,1.26,1.49,1.763
		c0.133,0.15,0.281,0.265,0.408,0.407c1.711,1.935,3.143,4.964,3.66,8.136c0.803,4.919-0.727,10.845-2.576,14.102
		c-0.648,1.143-1.799,2.378-2.713,3.39c-3.242,3.59-8.703,5.65-15.32,5.288c-1.396-0.076-2.922-0.03-4.34-0.406
		c-1.123-0.298-2.184-0.955-3.254-1.492c-2.023-1.014-3.404-1.831-4.881-3.254c-0.867-0.834-1.93-1.694-2.713-2.576
		c-0.801-0.902-1.508-2.491-2.848-2.441c-0.809,0.031-1.664,1.027-2.17,1.492c-0.359,0.332-0.609,0.689-0.812,0.949
		c-0.725,0.929-1.741,1.843-2.441,2.576c-0.856,0.896-1.539,1.403-2.305,2.169c-0.613,0.614-2.02,1.936-2.033,2.983
		c-0.016,1.154,1.494,2.761,2.168,3.526c0.305,0.343,0.615,0.721,0.949,1.084c3.895,4.241,8.547,7.396,14.104,9.356
		c2.021,0.713,4.039,1.346,6.102,1.627c10.092,1.375,18.793-0.952,24.678-4.882c1.564-1.045,3.334-2.257,4.609-3.39
		c0.16-0.143,0.248-0.397,0.406-0.542c0.832-0.763,1.924-1.603,2.576-2.305c0.094-0.1,0.485-0.775,0.579-0.881
		c0.576-0.66,0.804-0.736,1.319-1.424c0.256-0.34,0.414-0.742,0.678-1.085c0.293-0.376,0.549-0.698,0.814-1.085
		c3.656-5.312,5.85-12.394,5.695-20.203c-0.15-7.627-2.629-14.665-6.373-19.525c-0.918-1.192-1.832-2.401-2.848-3.525
		c-1.004-1.112-2.068-2.208-3.254-3.254c-1.256-1.109-2.547-1.883-3.797-2.712c-2.641-1.751-6.102-3.362-9.355-4.339
		c-1.057-0.316-2.422-0.687-3.254-0.813"/>
	<path fill="#FFFFFF" d="M142.852,21.956c0.494,1.583,1.24,5.581,2.441,6.237c0.828,0.453,2.166,0.212,3.525,0
		c2.107-0.33,3.4-0.792,4.881-1.221c1.293-0.374,4.182-1.611,4.746-1.22c0.691,0.479,0.406,3.861,0.406,5.424
		c0,17.959-0.135,35.103-0.135,52.61c0,8.433,0,14.985,0,23.458c0,2.238-0.578,10.062,0.543,11.254
		c0.975,1.039,5.24,0.678,7.592,0.678c2.168,0,6.52,0.495,7.594-0.678c0.699-0.764,0.543-4.293,0.543-6.644
		c0-17.244,0-34.107,0-50.576c0-17.057,0-33.642,0-50.576c0-2.397,0.201-5.922-0.543-6.78c-1-1.152-8.305-0.681-9.627-0.678
		c-1.34,0.003-3.771-0.23-5.018,0.135c-1.521,0.447-2.441,2.203-3.525,3.119c-0.168,0.142-0.24,0.263-0.406,0.407
		c-3.139,2.733-7.129,5.242-11.662,6.644c-0.584,0.181-1.23,0.28-1.762,0.542c-1.369,0.679-1.441,1.252-1.084,2.848
		C141.793,18.87,142.374,20.422,142.852,21.956z"/>
	<path fill="#FFFFFF" d="M72.616,119.176c3.352,0.093,5.652,0,8.678,0c1.357,0,3.121,0.154,4.066-0.271
		c1.334-0.599,2.404-3.63,3.525-5.831c3.279-6.433,6.328-12.966,9.357-18.847c0.523-1.018,0.984-2.071,1.49-3.119
		c0.51-1.053,1.104-2.076,1.627-3.119c1.078-2.142,1.959-4.286,2.984-6.373c1.039-2.114,2.141-4.103,3.119-6.237
		c0.979-2.137,2.195-4.18,3.254-6.237c1.094-2.127,1.92-4.376,2.982-6.373c1.133-2.13,2.131-4.217,3.119-6.237
		c3.094-6.325,6.314-12.613,9.355-18.848c0.502-1.027,0.967-2.085,1.492-3.119c0.561-1.105,1.217-2.582,1.762-3.525
		c0.559-0.965,0.941-1.835,1.357-2.712c0.562-1.194,1.236-2.616,1.762-3.525c0.273-0.471,0.334-0.794,0.543-1.22
		c0.754-1.548,2.002-3.389,2.305-4.881c0.406-2.003,0.135-4.829,0.135-7.729c0-2.527,0.441-6.203-0.541-7.187
		c-0.779-0.778-5.098-0.577-6.781-0.542c-8.043,0.167-16.141,0-23.592,0c-10.396,0-22.26-0.275-31.459,0
		c-1.336,0.04-2.633,0-3.254,0.949c-0.676,1.032-0.271,5.372-0.271,7.186c0,2.135-0.48,6.103,0.543,7.187
		c0.762,0.807,3.029,0.678,5.152,0.678c12.533,0,23.344,0,35.662,0c1.826,0,5.09-0.175,5.559,0.407
		c0.268,0.333-0.477,2.045-0.949,2.983c-1.629,3.24-3.26,6.369-4.609,9.22c-2.146,4.527-4.748,9.592-6.781,13.695
		c-0.533,1.079-1.029,2.178-1.49,3.119c-2.029,4.146-4.166,8.374-6.102,12.339c-0.756,1.544-1.648,3.648-2.441,5.017
		c-0.555,0.959-0.943,1.846-1.355,2.712c-1.447,3.038-3.002,6.29-4.475,9.221c-2.098,4.17-4.178,8.279-6.102,12.339
		c-0.41,0.863-1.051,1.838-1.357,2.576c-0.092,0.224-0.197,0.267-0.27,0.407c-1.123,2.155-2.021,4.612-3.119,6.508
		c-0.082,0.141-0.057,0.242-0.137,0.407c-0.416,0.86-0.805,1.542-1.219,2.305c-1.691,3.113-3.057,6.709-4.746,9.627
		c-0.369,0.636-0.705,1.386-0.949,1.898c-0.137,0.284-0.135,0.662-0.271,0.949c-0.264,0.55-0.654,1.005-0.814,1.492
		C68.536,118.985,69.901,119.101,72.616,119.176z"/>
	<g>
		<path fill="#FFFFFF" d="M264.865,66.778c-5.967,0-11.862-0.313-14.766,0.192c-0.122,0.021-0.26-0.007-0.384,0
			c-1.434,0.075-2.867,1.082-2.492,3.069c0.356,1.894,2.732,1.877,4.793,1.918c2.141,0.042,5.229-0.611,6.522,0.383
			c1.481,1.142,0.765,8.411,0.765,11.508c0,9.238,0,15.605,0,24.933c0,2.917-0.583,7.191,0.575,8.631
			c0.475,0.588,1.356,0.98,2.304,0.959c3.451-0.078,2.682-4.892,2.682-9.59c0-9.039,0-15.987,0-24.741
			c0-2.678-0.641-10.638,0.769-11.7c1.16-0.874,4.318-0.333,6.903-0.383c2.506-0.05,4.874-0.101,4.796-2.686
			C277.223,65.654,269.178,66.778,264.865,66.778z"/>
		<path fill="#FFFFFF" d="M268.512,4.637c-3.591,0-7.315-0.099-10.357,0c-1.627,0.052-3.578-0.162-4.412,0.958
			c-0.699,0.939-0.575,3.435-0.575,5.754c0,11.332,0,20.917,0,32.222c0,3.556-0.646,10.658,0.765,12.083
			c0.898,0.904,4.031,0.767,5.945,0.767c2.448,0,4.55,0,6.907,0c3.895,0,11.291,1.175,11.506-2.301
			c0.216-3.499-3.846-2.876-8.247-2.876c-2.861,0-9.951,0.573-10.931-0.576c-0.978-1.144-0.384-7.104-0.384-9.589
			c0-1.393,0-3.337,0-4.987c0-1.545-0.246-4.084,0.384-4.795c1.544-1.744,8.91,0.615,11.316-1.342
			c0.188-0.153,0.84-1.013,0.959-1.343c1.464-4.067-3.962-3.328-6.33-3.26c-0.547,0.016-1.127-0.168-1.727-0.192
			c-1.025-0.04-3.713,0.342-4.412-0.767c-0.644-1.025-0.191-5.902-0.191-6.905c0-1.994-0.585-5.775,0.384-6.904
			c0.616-0.718,3.083-0.576,4.793-0.576c4.006,0,13.789,1.103,14.579-1.726c0.152-0.549-0.13-2.163-0.193-2.301
			C277.402,4.048,272.159,4.637,268.512,4.637z"/>
		<path fill="#FFFFFF" d="M240.894,93.821c-0.539-0.363-1.163-0.61-1.727-0.959c-0.522-0.321-0.984-0.827-1.536-1.151
			c-1.42-0.836-2.793-1.119-4.409-1.726c-0.834-0.312-1.686-0.654-2.495-0.959c-4.556-1.714-11.587-3.345-13.043-7.672
			c-0.616-1.836-0.232-3.975,0.193-4.986c1.238-2.946,5.474-4.616,9.59-4.795c1.768-0.077,4.672,0.348,6.904,0.768
			c1.251,0.235,2.199,0.594,3.26,0.192c0.884-0.336,1.505-1.087,1.536-2.302c0.049-2.116-1.257-2.383-2.686-2.876
			c-1.262-0.435-2.961-0.998-4.603-1.15c-2.113-0.197-4.854-0.046-5.754,0c-2.081,0.104-3.017,0.422-4.219,0.767
			c-1.199,0.343-2.393,0.491-3.645,1.151c-1.658,0.872-3.683,2.778-4.796,4.411c-2.326,3.411-2.719,8.175-0.959,11.699
			c0.702,1.405,2.481,3.587,4.028,4.795c1.11,0.867,2.616,1.482,4.028,2.109c2.973,1.322,5.898,2.409,8.821,3.453
			c2.859,1.02,5.083,1.958,7.097,3.452c1.517,1.126,2.597,2.293,3.069,4.219c0.79,3.243-0.342,6.395-1.536,7.864
			c-2.091,2.576-6.896,3.979-11.316,3.644c-5.136-0.39-8.142-2.653-9.974-6.137c-0.375-0.718-0.597-1.759-1.149-2.301
			c-1.312-1.284-3.909-1.312-4.796,0c-1.138,1.685,0.381,4.696,0.958,5.753c0.658,1.206,1.821,2.385,2.876,3.453
			c1.174,1.183,2.834,2.557,4.028,3.069c5.738,2.459,15.599,2.167,20.331-0.575c1.276-0.74,2.011-1.546,3.069-2.686
			c1.749-1.882,2.166-2.683,2.876-5.178c0.279-0.981,0.677-1.941,0.768-2.877c0.453-4.671-0.997-8.108-2.685-10.356
			C242.22,94.889,241.977,94.551,240.894,93.821z"/>
		<path fill="#FFFFFF" d="M438.634,55.846c0.693,0.457,2.79,0.533,3.45,0.192c1.089-0.562,1.152-2.658,1.152-5.371
			c0-12.062,0-21.068,0-32.604c0-3.094,0.727-10.78-0.575-12.467c-1.182-1.528-4.953-1.071-5.947-0.958
			c-1.915,0.217-4.003,0.333-3.645,3.069c0.335,2.523,3.31,1.58,4.222,3.068c0.514,0.841,0.16,2.78,0.19,4.794
			c0.069,4.438,0.207,9.936,0.193,14.769c-0.011,3.166-0.193,8.128-0.193,13.234C437.481,46.796,436.75,54.605,438.634,55.846z"/>
		<path fill="#FFFFFF" d="M313.198,67.162c-1.119-0.459-2.663-0.188-3.45,0.575c-0.939,0.91-0.672,2.346-0.769,4.411
			c-0.37,7.844-0.066,17.373-0.19,25.125c-0.061,3.613,0.506,8.417-0.577,11.125c-0.986,2.471-3.258,4.054-5.945,4.795
			c-7.921,2.182-13.7-2.033-14.001-9.015c-0.1-2.328,0.193-5.858,0.193-9.014c0-6.887,0-12.472,0-19.18
			c0-2.047,0.533-7.479-1.152-8.631c-0.876-0.597-2.177-0.281-2.492-0.192c-0.113,0.032-0.279-0.048-0.384,0
			c-2.103,0.959-1.536,5.903-1.536,9.59c0,6.437,0,15.842,0,21.864c0,4.207-0.397,7.247,0.384,10.549
			c0.304,1.281,1.183,3.203,1.727,4.027c0.948,1.434,3.962,3.732,5.562,4.411c4.321,1.832,11.783,1.736,15.728,0.192
			c2.146-0.84,5.081-3.159,6.139-4.795c1.939-3,2.302-7.628,2.302-12.274c0-6.491,0-17.147,0-23.399
			C314.734,73.409,315.248,68.001,313.198,67.162z"/>
		<path fill="#FFFFFF" d="M285.196,48.558c0.955,2.894,3.713,5.937,6.138,7.097c4.134,1.976,10.844,1.695,15.729,0.575
			c2.478-0.568,4.387-1.593,4.409-3.26c0.005-0.418-0.514-1.795-0.959-2.11c-1.234-0.875-3.506-0.07-5.945,0.384
			c-3.063,0.569-6.572,0.75-8.821,0c-2.038-0.68-3.787-1.975-4.796-4.028c-0.947-1.932-0.975-5.534-0.958-8.248
			c0.033-5.45-0.031-11.008,0-16.877c0.017-2.984,0.008-5.952,0.768-7.864c1.577-3.972,7.199-5.971,12.658-4.795
			c1.948,0.42,5.382,1.288,5.945-0.767c0.536-1.958-0.97-2.966-2.879-3.644c-2.641-0.938-6.776-1.274-9.589-0.958
			c-2.08,0.233-4.929,1.094-6.329,1.918c-1.799,1.058-4.376,4.187-4.986,5.562c-0.517,1.163-1.012,3.798-1.149,5.754
			c-0.334,4.648,0,9.619,0,15.918C284.431,38.788,284.074,45.151,285.196,48.558z"/>
		<path fill="#FFFFFF" d="M447.07,94.013c-2.361-1.998-6.166-3.444-9.205-4.603c-3.467-1.323-6.97-2.146-10.166-3.836
			c-1.688-0.894-4.039-2.811-4.409-4.987c-0.48-2.821,0.489-4.484,1.343-5.562c2.729-3.456,9.042-3.885,14.382-2.877
			c2.429,0.459,4.098,1.132,5.181,0.192c0.549-0.478,0.875-1.866,0.768-2.686c-0.445-3.336-8.811-3.611-11.509-3.452
			c-2.569,0.152-3.808,0.33-5.562,0.767c-2.76,0.686-3.773,1.03-5.562,2.493c-1.464,1.199-2.431,2.362-3.263,3.836
			c-0.34,0.604-0.737,1.111-0.959,1.726c-1.588,4.424-0.378,8.564,1.728,11.316c0.395,0.514,0.98,1.201,1.533,1.726
			c1.84,1.737,3.846,2.405,6.329,3.453c0.779,0.327,1.539,0.665,2.304,0.958c2.562,0.983,4.841,1.953,7.288,2.877
			c1.607,0.607,3.269,1.16,4.603,2.109c1.973,1.405,3.859,3.817,4.028,6.521c0.182,2.984-1.089,4.919-2.302,6.329
			c-1.823,2.118-4.503,3.161-8.056,3.452c-6.531,0.536-10.424-1.925-12.658-5.562c-0.981-1.598-1.479-3.381-3.261-3.644
			c-4.439-0.655-3.174,4.081-2.301,5.945c1.923,4.119,6.396,7.315,11.122,8.247c4.741,0.936,10.625,0.581,14.576-0.767
			c0.942-0.321,1.621-0.932,2.494-1.535c1.812-1.252,3.901-3.363,4.794-5.178c0.334-0.678,0.527-1.762,0.768-2.686
			c0.862-3.284,0.622-7.822-0.574-10.165C449.731,96.873,448.223,94.986,447.07,94.013z"/>
		<path fill="#FFFFFF" d="M488.5,15.378c0.002-1.844,0.278-5.16,0.19-6.521c-0.158-2.448-0.719-4.283-3.069-4.219
			c-3.183,0.086-2.876,4.114-2.876,7.672c0,7.66,0,13.84,0,21.097c0,2.063,0.392,9.482-0.575,9.781
			c-0.851,0.262-2.602-3.039-3.453-4.411c-1.154-1.866-2.097-3.55-3.069-4.987c-4.536-6.708-8.379-12.917-12.465-19.371
			c-0.854-1.346-2.116-2.991-3.26-4.794c-0.24-0.376-0.302-0.911-0.577-1.343c-0.669-1.054-1.938-2.823-2.876-3.261
			c-1.012-0.472-2.343-0.221-2.492-0.191c-3.741,0.721-2.142,6.052-2.304,11.124c-0.111,3.541,0,8.104,0,10.356
			c0,1.911,0.044,4.832,0,6.138c-0.145,4.527-0.116,12.632-0.191,17.836c-0.038,2.728,0.37,5.526,1.918,5.946
			c3.812,1.032,3.95-2.849,4.027-5.178c0.273-8.355,0-15.764,0-23.399c0-1.994-0.586-8.852,0.384-9.59
			c0.569-0.434,1.178,0.601,1.152,0.576c0.379,0.38,0.476,0.445,0.959,1.151c2.367,3.473,4.754,7.24,6.71,10.548
			c2.826,4.776,5.559,8.702,8.44,13.234c1.69,2.66,3.414,5.242,4.986,7.863c0.983,1.64,2.092,4.198,4.028,4.795
			c1.113,0.344,2.746,0.387,3.644-0.384c1.9-1.631,0.754-10.438,0.769-13.042C488.538,35.427,488.485,22.907,488.5,15.378z"/>
		<path fill="#FFFFFF" d="M527.623,45.105c0-4.867,0.555-10.516-1.533-11.507c-1.139-0.541-3.388-0.245-5.181-0.192
			c-1.558,0.046-3.417-0.066-4.027,1.342c-0.737,1.706,0.597,2.974,1.343,3.452c1.298,0.832,2.79,0.479,3.453,1.343
			c0.893,1.162,0.527,3.081,0.19,4.795c-0.423,2.16-1.406,4.033-2.686,4.986c-1.094,0.815-2.597,1.566-3.834,1.918
			c-5.183,1.469-10.688-1.31-12.274-4.604c-1.826-3.788-0.959-9.666-0.959-16.302c0-4.581-0.326-9.501,0-12.851
			c0.32-3.293,2.012-5.604,3.835-6.712c1.856-1.127,4.669-1.923,8.439-1.535c1.042,0.108,3.45,0.941,3.835,0.959
			c1.779,0.085,3.027-0.436,3.263-1.726c0.373-2.051-1.605-2.949-3.454-3.453c-0.322-0.088-0.635-0.299-0.958-0.383
			c-1.859-0.488-5.191-0.658-6.714-0.575c-0.124,0.006-0.257,0.005-0.384,0c-3.017-0.135-6.044,1.089-7.672,2.301
			c-0.456,0.34-0.765,0.801-1.149,1.15c-0.887,0.809-1.828,1.558-2.301,2.302c-1.771,2.781-2.495,6.999-2.495,11.316
			c0,3.162-0.063,7.27,0,11.507c0.062,3.962-0.088,8.169,0.19,11.508c0.31,3.679,2.175,7.255,4.222,8.823
			c1.072,0.821,1.953,1.7,3.069,2.301c2.352,1.268,5.959,1.952,9.396,1.918c2.352-0.023,3.832-0.593,5.564-1.151
			c0.867-0.28,2.359-0.967,3.066-0.958c1.544,0.017,2.302,1.741,4.222,0.958C528.391,55.099,527.623,48.707,527.623,45.105z"/>
		<path fill="#FFFFFF" d="M336.407,56.613c1.34-0.288,3.053-0.731,3.835-1.151c3-1.611,5.701-4.479,6.713-7.863
			c1.296-4.338,0.768-11.233,0.768-16.687c0-5.777,0.536-14.805-1.151-18.987c-0.967-2.396-3.575-5.31-5.562-6.521
			c-3.072-1.871-7.862-2.359-11.7-1.917c-3.42,0.394-6.207,1.576-8.056,3.069c-1.701,1.375-2.95,3.296-3.834,5.178
			c-1.639,3.479-1.343,8.748-1.343,15.919c0,7.427-0.918,17.354,1.533,22.056C320.541,55.328,328.343,58.345,336.407,56.613z
			 M324.898,49.517c-0.439-0.346-0.744-0.861-1.149-1.343c-0.403-0.475-0.986-0.981-1.152-1.342
			c-0.856-1.86-0.959-5.282-0.959-8.439c0-6.281-0.055-12.711,0-18.028c0.025-2.343,0.323-5.75,1.343-7.48
			c1.4-2.375,4.321-3.55,7.479-4.028c6.122-0.925,11.095,2.569,11.7,8.247c0.478,4.454,0,8.735,0,13.234
			c0,4.584,0.414,9.368,0,13.042c-0.169,1.515-1.014,4.053-1.533,4.794c-1.224,1.743-5.216,3.321-8.056,3.453
			C329.324,51.776,326.815,51.018,324.898,49.517z"/>
		<path fill="#FFFFFF" d="M369.587,67.737c-1.146-1.338-4.299-0.93-5.945-0.767c-1.61,0.16-3.639,0.163-3.453,2.685
			c0.221,3.004,3.574,1.628,4.411,3.453c0.382,0.828,0,3.306,0,5.37c0,5.286,0.423,12.375,0.191,17.454
			c-0.137,2.978,0,7.179,0,11.316c0,3.258-0.793,9.593,1.151,10.74c0.97,0.571,2.854,0.311,3.454-0.192
			c0.941-0.793,0.928-4.189,0.958-6.713c0.139-11.518,0.139-21.871-0.193-31.837C370.057,76.085,371.181,69.599,369.587,67.737z"/>
		<path fill="#FFFFFF" d="M427.317,27.077c0.022-2.568,0.255-5.069,0-7.672c-0.312-3.198-1.967-7.054-3.263-8.63
			c-1.428-1.741-3.406-3.667-5.367-4.604c-3.379-1.61-7.652-1.557-13.043-1.918c-0.138-0.009-0.21,0.192-0.193,0.192
			c-2.26,0.023-7.243-0.625-8.821,0.575c-1.041,0.791-1.201,2.873-1.151,5.562c0.207,10.903,0.16,21.952,0.193,32.414
			c0.005,2.013-0.238,3.856-0.193,6.329c0.035,2.001,0.061,5.256,0.768,6.137c1.113,1.386,5.009,0.959,8.247,0.958
			c3.657,0,6.773,0.203,9.398,0c5.633-0.434,9.691-2.836,11.699-6.712C428.056,44.948,427.252,34.146,427.317,27.077z
			 M420.221,47.599c-0.569,0.826-2.323,2.185-3.645,2.685c-1.113,0.421-4.478,0.868-7.097,0.959
			c-2.012,0.069-6.614,0.305-7.479-0.384c-0.683-0.542-0.547-1.896-0.577-3.644c-0.083-4.915,0-7.179,0-13.234
			c0-6.317,0.017-11.447,0-17.262c0-0.983-0.29-2.489-0.191-3.835c0.072-0.97,0.158-2.351,1.343-2.877
			c0.108-0.047,0.271,0.036,0.384,0c0.062-0.019,0.009-0.178,0.191-0.191c7.696-0.566,13.531,0.429,16.111,3.452
			c1.34,1.569,2.483,5.735,2.492,9.206c0.011,3.548,0,8.16,0,13.426C421.754,40.861,421.908,45.148,420.221,47.599z"/>
		<path fill="#FFFFFF" d="M241.469,42.229c-0.442-1.312-1.376-3.354-1.152-4.794c0.191-1.216,1.224-1.803,1.917-2.686
			c0.682-0.866,1.539-2.064,1.92-2.877c1.663-3.544,1.851-9.433,1.533-13.809c-0.317-4.385-1.958-7.301-4.028-9.589
			c-1.638-1.812-2.812-2.565-5.371-3.261c-3.149-0.858-7.288-0.552-11.506-0.575c-2.942-0.017-5.775-0.249-7.863,0
			c-0.975,0.116-2.5-0.03-3.263,0.958c-0.677,0.883-0.575,3.585-0.575,6.137c0,11.197,0,22.32,0,33.756
			c0,4.547-0.958,10.394,2.495,10.74c3.992,0.401,3.067-4.523,3.067-7.864c0-2.142-0.528-8.041,0.577-9.014
			c0.961-0.848,6.137-0.384,7.479-0.384c2.611,0,6.293-0.364,7.288,0.192c1.066,0.595,1.398,2.605,1.92,4.219
			c0.976,3.018,2.269,6.376,3.26,9.207c0.561,1.604,1.113,3.338,2.685,3.644c1.282,0.25,2.415-0.038,2.876-0.575
			c0.87-1.015,0.13-2.904-0.384-4.603C243.198,47.258,242.543,45.429,241.469,42.229z M238.783,29.378
			c-0.63,1.25-1.989,2.866-3.644,3.453c-2.218,0.786-5.553,0.603-8.44,0.576c-1.699-0.016-6.54,0.394-7.479-0.576
			c-1.307-1.345-0.577-8.521-0.577-11.508c0-2.575,0-3.994,0-5.945c0-2.114-0.301-4.297,1.152-4.987c0.105-0.05,0.273,0.038,0.384,0
			c1.089-0.382,4.098-0.192,6.521-0.192c4.18,0,7.898-0.251,10.167,1.343C240.43,14.047,241.286,24.419,238.783,29.378z"/>
		<path fill="#FFFFFF" d="M383.972,42.229c-0.47-1.344-1.293-3.351-1.152-4.603c0.146-1.288,1.506-2.428,2.111-3.069
			c0.607-0.644,0.983-1.434,1.343-2.109c1.748-3.301,2.323-7.984,2.11-12.275c-0.229-4.581-1.346-8.458-3.453-10.933
			c-2.326-2.73-5.015-4.289-9.398-4.603c-4.393-0.315-11.435-0.251-15.344,0c-1.522,0.098-3.111-0.233-4.028,0.958
			c-0.729,0.954-0.574,3.743-0.574,5.754c0,11.144,0,21.237,0,32.222c0,3.5-0.76,10.688,0.768,12.083
			c0.317,0.292,1.077,0.513,1.533,0.575c4.658,0.639,3.276-5.149,3.26-9.59c-0.003-1.385-0.138-6.576,0.578-7.288
			c0.892-0.892,6.437-0.365,7.672-0.384c2.441-0.037,5.701-0.582,7.287,0.384c1.047,0.639,1.6,3.412,2.108,4.987
			c0.588,1.82,1.204,3.375,1.92,5.37c0.577,1.615,1.08,4.064,1.917,5.179c1.354,1.8,4.199,1.884,4.986,0.383
			c0.735-1.401-0.845-5.204-1.342-6.713C385.5,46.216,384.762,44.491,383.972,42.229z M379.943,31.488
			c-2.284,2.03-6.332,1.872-11.125,1.918c-2.216,0.021-6.24,0.405-7.094-0.576c-0.655-0.749-0.556-7.376-0.578-9.59
			c-0.021-2.379,0.169-4.866,0.193-6.329c0.039-2.26-0.354-5.544,0.769-6.329c0.135-0.095,0.182-0.102,0.381-0.191
			c0.882-0.398,4.456-0.192,6.907-0.192c5.983,0,9.691-0.207,11.89,3.453C383.771,17.783,383.334,28.475,379.943,31.488z"/>
		<path fill="#FFFFFF" d="M381.096,70.998c-0.594,0.75-1.257,1.53-1.536,2.11c-2.008,4.176-1.533,11.677-1.533,18.028
			c0,6.117-0.553,15.589,1.149,19.563c1.699,3.965,5.332,6.928,9.782,7.864c4.216,0.886,9.187,0.672,12.659-0.768
			c2.884-1.197,5.688-3.711,6.903-6.329c1.503-3.238,1.343-9.369,1.343-15.535c0-7.813,0.898-17.197-1.533-22.44
			c-0.71-1.53-2.188-3.126-3.263-4.219c-2.48-2.524-7.412-3.887-11.891-3.644c-4.343,0.236-7.716,1.459-9.973,3.261 M401.042,111.85
			c-1.348,1.039-4.039,1.843-6.329,1.918c-3.834,0.126-6.735-1.042-8.631-3.069c-0.79-0.844-1.591-1.736-1.92-2.685
			c-0.677-1.959-0.384-4.913-0.384-8.055c0-2.419,0-5.289,0-8.248c0-7.676-0.81-14.689,2.11-17.836
			c1.196-1.288,3.343-2.301,5.755-2.686c1.139-0.181,3.901-0.313,5.371,0c4.104,0.876,6.793,3.855,7.287,8.631
			c0.515,4.956,0,9.599,0,14.959C404.302,101.937,404.913,108.863,401.042,111.85z"/>
		<path fill="#FFFFFF" d="M354.627,84.615c-0.141-6.021-1.997-10.872-5.18-13.81c-2.683-2.476-6.167-3.742-11.316-4.027
			c-3.572-0.198-9.525-0.418-12.658,0.192c-0.983,0.191-1.807,0.27-2.302,0.958c-1.29,1.806-0.574,10.178-0.574,12.083
			c0,7.594,0,17.91,0,25.317c0,2.573-0.517,10.653,0.574,12.083c1.349,1.764,7.927,1.15,11.126,1.151
			c4.511,0,8.266,0.226,11.699-0.959c2.229-0.771,5.774-3.806,6.714-5.562c2.395-4.481,1.727-12.603,1.727-19.18
			C354.437,89.861,354.682,86.959,354.627,84.615z M348.872,93.629c0,2.411,0,5.165,0,7.864c0,2.497,0.039,5.096-0.768,6.904
			c-1.652,3.706-5.744,4.812-11.316,4.987c-2.538,0.08-6.799,0.519-7.862-0.575c-0.604-0.623-0.533-3.657-0.574-5.562
			c-0.066-2.989,0.182-4.795,0.19-5.754c0.027-2.639-0.19-10.843-0.19-14.96c0-3.026-0.13-4.132,0-7.864
			c0.03-0.905-0.025-3.263,0-3.644c0.052-0.872,0.198-2.555,1.149-2.877c0.115-0.039,0.271,0.043,0.384,0
			c1.021-0.383,5.044-0.262,6.713-0.191c5.216,0.219,8.534,1.485,10.741,4.794C349.659,80.234,348.872,87.871,348.872,93.629z"/>
	</g>
</g>
</svg>
